<svg width="182" height="95" viewBox="0 0 182 95" fill="none" xmlns="http://www.w3.org/2000/svg">
<path fill-rule="evenodd" clip-rule="evenodd" d="M34.8554 67.2788C15.6823 67.2537 -0.026018 52.1216 3.23542e-05 33.652C0.0260827 15.107 15.6042 0.0251258 34.8033 3.11157e-05C54.1326 -0.0250635 69.8931 15.1321 69.841 33.7272C69.8149 52.1718 54.0284 67.3039 34.8554 67.2788ZM34.9335 15.9854C24.6176 15.9603 16.568 23.7144 16.568 33.6017C16.568 43.5141 24.6176 51.2935 34.8814 51.2935C45.1453 51.3186 53.273 43.4891 53.2469 33.652C53.2469 23.7396 45.2234 15.9854 34.9335 15.9854Z" fill="#F5F5F5"/>
<path fill-rule="evenodd" clip-rule="evenodd" d="M120.014 67.2788C100.841 67.2537 85.1329 52.1216 85.159 33.652C85.159 15.107 100.763 0.0251258 119.962 3.11157e-05C139.292 -0.0250635 155.026 15.1321 155 33.7272C154.948 52.1718 139.187 67.3039 120.014 67.2788ZM120.066 15.9854C109.777 15.9603 101.727 23.7144 101.727 33.6017C101.727 43.5141 109.75 51.2935 120.04 51.2935C130.278 51.3186 138.406 43.4891 138.406 33.652C138.406 23.7396 130.356 15.9854 120.066 15.9854Z" fill="#F5F5F5"/>
<path d="M105.634 63.1373H88.0762L70.4922 38.8958H69.9191C70.2057 37.1894 70.362 35.4328 70.362 33.6511C70.362 31.5431 70.1536 29.4854 69.7889 27.5029H76.4317C81.4334 27.5029 85.1065 24.4664 85.1065 20.0748C85.1065 15.8088 81.4334 12.6719 76.4317 12.6719H64.2141V14.5791C60.3587 9.18379 54.9141 4.9177 48.5579 2.40823V0.425781H78.8023C91.046 0.425781 100.059 9.00808 100.059 19.6733C100.059 28.2306 94.1199 35.1317 85.7056 37.3149L105.634 63.1373Z" fill="url(#paint0_linear_536_3976)"/>
<path fill-rule="evenodd" clip-rule="evenodd" d="M106.338 63.4894H87.868L70.3101 39.248H69.4765L69.5546 38.8464C69.8412 37.1149 69.9975 35.3834 69.9975 33.6519C69.9975 31.6192 69.8151 29.5614 69.4244 27.5538L69.3462 27.1524H76.4319C81.3294 27.1524 84.742 24.2414 84.742 20.0757C84.742 15.9852 81.2512 12.9989 76.4319 12.9989H64.579V15.6841L63.9278 14.7556C60.0463 9.36021 54.7059 5.19453 48.4278 2.73525L48.1934 2.6349V0.0751953H78.8025C84.768 0.0751953 90.2646 2.10793 94.2764 5.79685C98.2361 9.43557 100.424 14.3541 100.424 19.6741C100.424 27.9805 94.7714 35.1074 86.305 37.5165L106.338 63.4894ZM88.2327 62.8118H104.879L85.0546 37.14L85.5756 36.9894C94.0159 34.8062 99.6688 27.8299 99.6688 19.6741C99.6688 9.0842 90.4991 0.777919 78.8025 0.777919H48.8967V2.18324C54.8622 4.56723 59.9942 8.4569 63.8236 13.4758V12.3215H76.4319C81.642 12.3215 85.4453 15.5838 85.4453 20.1008C85.4453 24.5927 81.642 27.855 76.4319 27.855H70.2059C70.5445 29.7622 70.7008 31.7196 70.7008 33.6519C70.7008 35.2831 70.5706 36.9393 70.3101 38.5454H70.6748L88.2327 62.8118Z" fill="url(#paint1_linear_536_3976)"/>
<path d="M35.0635 36.9401C33.0837 36.9903 31.5206 35.5849 31.4946 33.7279C31.4425 31.9211 33.1097 30.2147 34.9593 30.3652C36.9131 30.4907 38.2416 31.4443 38.3458 33.5021C38.45 35.4594 37.0694 36.8899 35.0635 36.9401Z" fill="url(#paint2_linear_536_3976)"/>
<path d="M71.0691 81.3402C71.0691 77.2519 74.5036 73.9434 78.7476 73.9434C81.7159 73.9434 84.2918 75.5504 85.5674 77.9136L82.7217 79.3315C82.0103 77.9609 80.5384 77.0392 78.7476 77.0392C76.2453 77.0392 74.3073 78.9298 74.3073 81.3402C74.3073 83.7743 76.2453 85.6411 78.7476 85.6411C80.5384 85.6411 82.0103 84.7432 82.7217 83.3726L85.5674 84.7905C84.2918 87.1537 81.7159 88.7606 78.7476 88.7606C74.5036 88.7606 71.0691 85.4285 71.0691 81.3402Z" fill="url(#paint3_linear_536_3976)"/>
<path fill-rule="evenodd" clip-rule="evenodd" d="M99.2807 86.0661V88.5711C99.0599 88.6657 98.741 88.7601 98.4221 88.7601C97.0728 88.7601 95.9689 88.0985 95.3556 87.1296C94.5461 88.1221 93.3931 88.7601 91.9457 88.7601C89.1736 88.7601 86.9902 86.5387 86.9902 83.7501C86.9902 80.9616 89.1736 78.7402 91.9457 78.7402C93.0741 78.7402 94.0309 79.142 94.7914 79.78V78.9529H97.956V85.1208C97.956 85.9243 98.3976 86.0661 98.8391 86.0661H99.2807ZM94.914 83.7501C94.914 82.474 93.8592 81.4579 92.559 81.4579C91.2342 81.4579 90.1794 82.474 90.1794 83.7501C90.1794 85.0262 91.2342 86.0425 92.559 86.0425C93.8592 86.0425 94.914 85.0262 94.914 83.7501Z" fill="url(#paint4_linear_536_3976)"/>
<path fill-rule="evenodd" clip-rule="evenodd" d="M112.086 83.7501C112.086 86.5387 109.903 88.7601 107.155 88.7601C106.027 88.7601 105.07 88.3584 104.31 87.7204V94.3609L101.121 94.3373V78.9529L104.31 78.9766V79.78C105.07 79.142 106.027 78.7402 107.155 78.7402C109.903 78.7402 112.086 80.9616 112.086 83.7501ZM108.922 83.7501C108.922 82.474 107.867 81.4579 106.542 81.4579C105.217 81.4579 104.163 82.474 104.163 83.7501C104.163 85.0262 105.217 86.0425 106.542 86.0425C107.867 86.0425 108.922 85.0262 108.922 83.7501Z" fill="url(#paint5_linear_536_3976)"/>
<path d="M114.22 75.6457C114.22 74.7004 115.03 73.9678 115.962 73.9678C116.919 73.9678 117.729 74.7004 117.729 75.6457C117.729 76.5673 116.919 77.3235 115.962 77.3235C115.03 77.3235 114.22 76.5673 114.22 75.6457ZM114.368 78.9541H117.557V88.5724H114.368V78.9541Z" fill="url(#paint6_linear_536_3976)"/>
<path d="M124.205 81.3171V84.7674C124.205 85.5472 124.696 86.0671 125.358 86.0671H126.56V88.454C126.315 88.6194 125.628 88.7611 124.966 88.7611C122.832 88.7611 121.041 87.1778 121.041 85.1219V81.3171H119.373V78.9539H121.041V75.2437H124.205V78.9539H126.585V81.3171H124.205Z" fill="url(#paint7_linear_536_3976)"/>
<path fill-rule="evenodd" clip-rule="evenodd" d="M140.126 86.0661V88.5711C139.905 88.6657 139.611 88.7601 139.292 88.7601C137.943 88.7601 136.839 88.0985 136.225 87.1296C135.416 88.1221 134.238 88.7601 132.791 88.7601C130.019 88.7601 127.86 86.5387 127.86 83.7501C127.86 80.9616 130.019 78.7402 132.791 78.7402C133.944 78.7402 134.901 79.142 135.637 79.78V78.9529H138.826V85.1208C138.826 85.9243 139.267 86.0661 139.684 86.0661H140.126ZM135.784 83.7501C135.784 82.474 134.704 81.4579 133.404 81.4579C132.104 81.4579 131.049 82.474 131.049 83.7501C131.049 85.0262 132.104 86.0425 133.404 86.0425C134.704 86.0425 135.784 85.0262 135.784 83.7501Z" fill="url(#paint8_linear_536_3976)"/>
<path d="M141.99 72.0762H145.179V88.5713H141.99V72.0762Z" fill="url(#paint9_linear_536_3976)"/>
<g style="mix-blend-mode:multiply">
<path fill-rule="evenodd" clip-rule="evenodd" d="M162.64 88.2912C161.957 90.1879 161.616 92.2364 161.616 94.3607H155C155 91.0478 155.656 87.8865 156.864 84.9782C159.174 85.4082 161.196 86.5968 162.64 88.2912ZM168.205 72.3081C166.079 73.4967 164.136 74.9636 162.456 76.658C161.633 77.4673 160.872 78.3272 160.172 79.2376C162.324 79.9204 164.293 81.0331 165.947 82.4493C166.63 81.6232 167.383 80.856 168.205 80.1479C169.912 78.6811 171.854 77.4925 173.981 76.658C176.291 75.7729 178.785 75.2671 181.436 75.2671V68.894C176.632 68.894 172.117 70.1332 168.205 72.3081Z" fill="url(#paint10_linear_536_3976)"/>
<path d="M168.205 84.8265C166.131 87.4819 164.897 90.7949 164.897 94.3607C164.897 92.0594 164.057 89.9351 162.64 88.2912C161.196 86.5968 159.174 85.4082 156.864 84.9783C156.251 84.8771 155.63 84.8265 155 84.8265V78.4536C156.811 78.4536 158.544 78.7318 160.172 79.2376C162.324 79.9204 164.293 81.0331 165.947 82.4493C166.787 83.1574 167.549 83.9667 168.205 84.8265Z" fill="url(#paint11_linear_536_3976)"/>
<path fill-rule="evenodd" clip-rule="evenodd" d="M181.437 78.4536V84.8265C180.789 84.8265 180.168 84.8771 179.573 84.9783C178.733 82.9298 177.604 81.0079 176.265 79.2376C177.893 78.7318 179.625 78.4536 181.437 78.4536ZM170.489 82.4493C169.649 83.1574 168.888 83.9667 168.205 84.8265C166.131 87.4819 164.897 90.7949 164.897 94.3607H171.513C171.513 92.0594 172.379 89.9351 173.797 88.2912C173.036 86.1416 171.907 84.169 170.489 82.4493Z" fill="url(#paint12_linear_536_3976)"/>
<path fill-rule="evenodd" clip-rule="evenodd" d="M181.436 94.3607H174.821C174.821 92.2364 174.453 90.1879 173.797 88.2912C173.036 86.1416 171.907 84.169 170.489 82.4493C169.789 81.6232 169.028 80.856 168.205 80.1479C169.912 78.6811 171.854 77.4925 173.981 76.658C174.803 77.4673 175.565 78.3272 176.265 79.2376C177.604 81.0079 178.732 82.9298 179.573 84.9782C180.78 87.8865 181.436 91.0478 181.436 94.3607ZM168.205 72.3081C166.079 73.4967 164.136 74.9636 162.456 76.658C160.146 75.7729 157.625 75.2671 155 75.2671V68.894C159.804 68.894 164.32 70.1332 168.205 72.3081Z" fill="url(#paint13_linear_536_3976)"/>
</g>
<defs>
<linearGradient id="paint0_linear_536_3976" x1="35.4024" y1="12.3959" x2="66.773" y2="-20.1954" gradientUnits="userSpaceOnUse">
<stop stop-color="#C39625"/>
<stop offset="0.3" stop-color="#FEC821"/>
<stop offset="0.5" stop-color="#EBEC7E"/>
<stop offset="0.6" stop-color="#FEC821"/>
<stop offset="1" stop-color="#C39625"/>
</linearGradient>
<linearGradient id="paint1_linear_536_3976" x1="69.6328" y1="-20.5777" x2="129.316" y2="41.3788" gradientUnits="userSpaceOnUse">
<stop stop-color="#C39625"/>
<stop offset="0.3" stop-color="#FEC821"/>
<stop offset="0.5" stop-color="#C39625"/>
<stop offset="0.6" stop-color="#FEC821"/>
<stop offset="1" stop-color="#C39625"/>
</linearGradient>
<linearGradient id="paint2_linear_536_3976" x1="29.5148" y1="33.1006" x2="34.155" y2="28.3097" gradientUnits="userSpaceOnUse">
<stop stop-color="#C39625"/>
<stop offset="0.5" stop-color="#FEC821"/>
<stop offset="1" stop-color="#C39625"/>
</linearGradient>
<linearGradient id="paint3_linear_536_3976" x1="70.5785" y1="88.7606" x2="70.5785" y2="73.9434" gradientUnits="userSpaceOnUse">
<stop stop-color="#C39625"/>
<stop offset="0.9" stop-color="#FEC821"/>
<stop offset="1" stop-color="#FEC821"/>
</linearGradient>
<linearGradient id="paint4_linear_536_3976" x1="86.4996" y1="88.7601" x2="86.4996" y2="78.7402" gradientUnits="userSpaceOnUse">
<stop stop-color="#C39625"/>
<stop offset="0.9" stop-color="#FEC821"/>
<stop offset="1" stop-color="#FEC821"/>
</linearGradient>
<linearGradient id="paint5_linear_536_3976" x1="100.63" y1="94.3609" x2="100.63" y2="78.7402" gradientUnits="userSpaceOnUse">
<stop stop-color="#C39625"/>
<stop offset="0.9" stop-color="#FEC821"/>
<stop offset="1" stop-color="#FEC821"/>
</linearGradient>
<linearGradient id="paint6_linear_536_3976" x1="113.73" y1="88.5724" x2="113.73" y2="73.9678" gradientUnits="userSpaceOnUse">
<stop stop-color="#C39625"/>
<stop offset="0.9" stop-color="#FEC821"/>
<stop offset="1" stop-color="#FEC821"/>
</linearGradient>
<linearGradient id="paint7_linear_536_3976" x1="118.882" y1="88.7611" x2="118.882" y2="75.2437" gradientUnits="userSpaceOnUse">
<stop stop-color="#C39625"/>
<stop offset="0.9" stop-color="#FEC821"/>
<stop offset="1" stop-color="#FEC821"/>
</linearGradient>
<linearGradient id="paint8_linear_536_3976" x1="127.369" y1="88.7601" x2="127.369" y2="78.7402" gradientUnits="userSpaceOnUse">
<stop stop-color="#C39625"/>
<stop offset="0.9" stop-color="#FEC821"/>
<stop offset="1" stop-color="#FEC821"/>
</linearGradient>
<linearGradient id="paint9_linear_536_3976" x1="141.499" y1="88.5713" x2="141.499" y2="72.0762" gradientUnits="userSpaceOnUse">
<stop stop-color="#C39625"/>
<stop offset="0.9" stop-color="#FEC821"/>
<stop offset="1" stop-color="#FEC821"/>
</linearGradient>
<linearGradient id="paint10_linear_536_3976" x1="181.436" y1="94.8665" x2="155" y2="94.8665" gradientUnits="userSpaceOnUse">
<stop stop-color="#23282C" stop-opacity="0.1"/>
<stop offset="1" stop-color="#23282C" stop-opacity="0.5"/>
</linearGradient>
<linearGradient id="paint11_linear_536_3976" x1="158.807" y1="74.7866" x2="171.545" y2="87.9835" gradientUnits="userSpaceOnUse">
<stop stop-color="#23282C" stop-opacity="0.2"/>
<stop offset="1" stop-color="#23282C" stop-opacity="0.5"/>
</linearGradient>
<linearGradient id="paint12_linear_536_3976" x1="181.962" y1="78.4536" x2="181.962" y2="94.3607" gradientUnits="userSpaceOnUse">
<stop stop-color="#23282C" stop-opacity="0.1"/>
<stop offset="1" stop-color="#23282C" stop-opacity="0.5"/>
</linearGradient>
<linearGradient id="paint13_linear_536_3976" x1="166.971" y1="62.2429" x2="184.04" y2="92.9155" gradientUnits="userSpaceOnUse">
<stop stop-color="#23282C" stop-opacity="0.2"/>
<stop offset="1" stop-color="#23282C" stop-opacity="0.5"/>
</linearGradient>
</defs>
</svg>
