<svg width="990" height="568" viewBox="0 0 990 568" fill="none" xmlns="http://www.w3.org/2000/svg">
<path fill-rule="evenodd" clip-rule="evenodd" d="M971.281 557.563C813.406 557.356 684.059 432.755 684.274 280.672C684.488 127.968 812.762 3.78013 970.852 3.5735C1130.01 3.36686 1259.79 128.174 1259.36 281.291C1259.15 433.168 1129.16 557.769 971.281 557.563ZM971.925 135.201C886.981 134.994 820.699 198.844 820.699 280.258C820.699 361.879 886.981 425.936 971.496 425.936C1056.01 426.142 1122.94 361.673 1122.72 280.672C1122.72 199.051 1056.65 135.201 971.925 135.201Z" fill="white"/>
<path d="M971.282 557.063C813.664 556.857 684.56 432.461 684.774 280.672C684.988 128.26 813.023 4.27979 970.853 4.0735C1129.76 3.8672 1259.29 128.469 1258.86 281.29C1258.65 432.873 1128.9 557.269 971.282 557.063ZM971.926 134.701C886.723 134.493 820.199 198.549 820.199 280.258C820.199 362.171 886.72 426.435 971.494 426.436C1056.27 426.643 1123.44 361.967 1123.22 280.67C1123.22 198.758 1056.91 134.701 971.926 134.701Z" stroke="#262424" stroke-opacity="0.55"/>
<path d="M865.564 564.854H708.298L550.798 347.723H545.665C548.231 332.439 549.631 316.705 549.631 300.746C549.631 281.865 547.765 263.434 544.498 245.677H603.998C648.798 245.677 681.698 218.479 681.698 179.144C681.698 140.933 648.798 112.836 603.998 112.836H494.565V129.919C460.032 81.5933 411.265 43.382 354.332 20.9047V3.14795H625.231C734.897 3.14795 815.63 80.0194 815.63 175.548C815.63 252.195 762.431 314.008 687.064 333.563L865.564 564.854Z" fill="white"/>
<path fill-rule="evenodd" clip-rule="evenodd" d="M871.867 568H706.435L549.169 350.87H541.702L542.402 347.273C544.969 331.764 546.369 316.255 546.369 300.746C546.369 282.539 544.735 264.107 541.235 246.126L540.535 242.53H604.002C647.868 242.53 678.435 216.456 678.435 179.144C678.435 142.506 647.168 115.758 604.002 115.758H497.835V139.809L492.002 131.492C457.236 83.1657 409.402 45.8538 353.169 23.8261L351.069 22.9272V0H625.235C678.668 0 727.901 18.2072 763.834 51.2487C799.301 83.8407 818.901 127.896 818.901 175.547C818.901 249.947 768.268 313.783 692.435 335.361L871.867 568ZM709.701 561.931H858.801L681.235 331.989L685.901 330.64C761.501 311.085 812.134 248.598 812.134 175.547C812.134 80.6935 730.001 6.29428 625.235 6.29428H357.369V18.8818C410.802 40.2351 456.769 75.0748 491.069 120.029V109.69H604.002C650.668 109.69 684.735 138.91 684.735 179.369C684.735 219.603 650.668 248.823 604.002 248.823H548.235C551.269 265.906 552.669 283.439 552.669 300.746C552.669 315.356 551.502 330.191 549.169 344.577H552.435L709.701 561.931Z" fill="url(#paint0_linear_558_3025)"/>
<path fill-rule="evenodd" clip-rule="evenodd" d="M291.566 564.57C131.183 564.36 -0.217641 437.781 0.000270644 283.283C0.218182 128.156 130.529 1.9968 291.13 1.78688C452.821 1.57697 584.658 128.366 584.222 283.913C584.004 438.2 451.949 564.78 291.566 564.57ZM292.22 135.503C205.927 135.293 138.592 200.157 138.592 282.863C138.592 365.78 205.927 430.853 291.784 430.853C377.641 431.063 445.63 365.57 445.412 283.283C445.412 200.367 378.295 135.503 292.22 135.503Z" fill="white"/>
<path d="M291.567 564.07C131.441 563.86 0.282774 437.487 0.50027 283.284C0.717773 128.448 130.79 2.49646 291.131 2.28688C452.564 2.0773 584.157 128.66 583.722 283.911C583.504 437.905 451.693 564.279 291.567 564.07ZM292.221 135.003C205.67 134.793 138.092 199.862 138.092 282.863C138.092 366.072 205.666 431.353 291.783 431.353C377.898 431.564 446.131 365.864 445.912 283.282C445.911 200.074 378.555 135.004 292.221 135.003Z" stroke="#262424" stroke-opacity="0.55"/>
<defs>
<linearGradient id="paint0_linear_558_3025" x1="543.102" y1="-184.988" x2="1077.69" y2="369.956" gradientUnits="userSpaceOnUse">
<stop stop-color="#C39625"/>
<stop offset="0.3" stop-color="#FEC821"/>
<stop offset="0.5" stop-color="#C39625"/>
<stop offset="0.6" stop-color="#FEC821"/>
<stop offset="1" stop-color="#C39625"/>
</linearGradient>
</defs>
</svg>
