<svg width="201" height="95" viewBox="0 0 201 95" fill="none" xmlns="http://www.w3.org/2000/svg">
<path fill-rule="evenodd" clip-rule="evenodd" d="M36.8804 72.1567C16.5831 72.1315 -0.0261255 56.1063 3.0851e-05 36.5789C0.0261872 16.9254 16.5308 0.97591 36.8281 0.950713C57.2824 0.925516 73.9439 16.9759 73.8916 36.6293C73.8655 56.1568 57.1777 72.1567 36.8804 72.1567ZM36.9589 17.8577C26.0517 17.8577 17.5248 26.0467 17.5248 36.5033C17.5248 47.0104 26.0256 55.2245 36.9066 55.2497C47.7615 55.2497 56.3669 46.9852 56.3407 36.5538C56.3407 26.0719 47.8399 17.8829 36.9589 17.8577Z" fill="#F5F5F5"/>
<path fill-rule="evenodd" clip-rule="evenodd" d="M126.989 72.1567C106.691 72.1315 90.082 56.1063 90.1082 36.5789C90.1082 16.9254 106.613 0.97591 126.936 0.950713C147.391 0.925516 164.052 16.9759 164 36.6293C163.974 56.1568 147.26 72.1567 126.989 72.1567ZM127.041 17.8577C116.16 17.8577 107.633 26.0467 107.633 36.5033C107.633 47.0104 116.134 55.2245 127.015 55.2497C137.843 55.2497 146.449 46.9852 146.449 36.5538C146.449 26.0719 137.948 17.8829 127.041 17.8577Z" fill="#F5F5F5"/>
<path d="M111.766 67.7734H93.195L74.5979 42.098H73.9701C74.284 40.309 74.4409 38.4445 74.4409 36.5547C74.4409 34.3374 74.2317 32.1704 73.8394 30.0539H80.8754C86.159 30.0539 90.0563 26.854 90.0563 22.1926C90.0563 17.6824 86.159 14.3564 80.8754 14.3564H67.9542V16.3721C63.8738 10.6776 58.1194 6.16741 51.3711 3.49655V1.40527H83.3864C96.3338 1.40527 105.855 10.476 105.855 21.7642C105.855 30.835 99.5771 38.1169 90.684 40.4602L111.766 67.7734Z" fill="url(#paint0_linear_536_3947)"/>
<path fill-rule="evenodd" clip-rule="evenodd" d="M112.525 68.125H92.9858L74.3887 42.4748H73.5255L73.604 42.0464C73.8917 40.2322 74.0486 38.3929 74.0486 36.5536C74.0748 34.4118 73.8655 32.2449 73.447 30.1284L73.3686 29.6748H80.8754C86.0544 29.6748 89.6639 26.6009 89.6639 22.1914C89.6639 17.8576 85.9759 14.7332 80.8754 14.7332H68.3204V17.5551L67.6403 16.5725C63.5338 10.8528 57.884 6.46859 51.2403 3.84813L50.9788 3.74737V1.05127H83.3864C89.6901 1.05127 95.4968 3.19299 99.7341 7.09849C103.945 10.9536 106.247 16.1442 106.247 21.763C106.247 30.5567 100.257 38.0905 91.3118 40.6606L112.525 68.125ZM93.3781 67.3943H111.007L90.0301 40.2322L90.5794 40.0811C99.4987 37.763 105.489 30.3803 105.489 21.763C105.489 10.5505 95.7845 1.78207 83.3864 1.78207H51.7634V3.24343C58.0671 5.7883 63.5076 9.89537 67.5619 15.2119V13.9773H80.8754C86.3944 13.9773 90.4225 17.4292 90.4225 22.1914C90.4225 26.9536 86.3944 30.4055 80.8754 30.4055H74.284C74.6502 32.4464 74.8333 34.4874 74.8333 36.5536C74.8071 38.2669 74.6764 40.0055 74.4148 41.7189H74.8072L93.3781 67.3943Z" fill="url(#paint1_linear_536_3947)"/>
<path d="M37.1158 40.0311C34.9972 40.0815 33.3755 38.6201 33.3232 36.6296C33.2709 34.7146 35.0233 32.9256 37.0112 33.0768C39.0514 33.228 40.4638 34.2107 40.5684 36.4028C40.6731 38.469 39.2345 39.9807 37.1158 40.0311Z" fill="url(#paint2_linear_536_3947)"/>
<path fill-rule="evenodd" clip-rule="evenodd" d="M85.7744 83.8548C85.7744 86.5023 83.6543 88.4439 80.906 88.4439H77.5818V94.7978H73.9958V79.1396H80.906C83.6543 79.1396 85.7744 81.2577 85.7744 83.8548ZM82.3456 83.88C82.3456 82.8715 81.4818 82.1654 80.3563 82.1654H77.5818V85.5946H80.3563C81.4818 85.5946 82.3456 84.939 82.3456 83.88Z" fill="url(#paint3_linear_536_3947)"/>
<path fill-rule="evenodd" clip-rule="evenodd" d="M100.144 92.0749V94.798C99.9086 94.8988 99.5945 94.9998 99.2281 94.9998C97.7623 94.9998 96.5845 94.2938 95.9039 93.2347C95.0401 94.319 93.7576 94.9998 92.1871 94.9998C89.177 94.9998 86.8213 92.6044 86.8213 89.5787C86.8213 86.5529 89.177 84.1323 92.1871 84.1323C93.4435 84.1323 94.4643 84.561 95.2757 85.267V84.3592H98.7308V91.0663C98.7308 91.9236 99.2019 92.0749 99.6731 92.0749H100.144ZM95.4328 89.5787C95.4328 88.1919 94.2549 87.1076 92.8415 87.1076C91.4019 87.1076 90.2764 88.1919 90.2764 89.5787C90.2764 90.9655 91.4019 92.0496 92.8415 92.0496C94.2549 92.0496 95.4328 90.9655 95.4328 89.5787Z" fill="url(#paint4_linear_536_3947)"/>
<path d="M109.671 84.2584V87.2084C109.41 87.158 109.069 87.1076 108.651 87.1076C106.949 87.1076 105.745 88.091 105.745 89.8056V94.798H102.264V84.3592H105.745V85.7965C106.426 84.7627 107.499 84.1323 108.781 84.1323C109.096 84.1323 109.41 84.1828 109.671 84.2584Z" fill="url(#paint5_linear_536_3947)"/>
<path d="M115.928 86.9314V90.6631C115.928 91.5456 116.425 92.0751 117.158 92.0751H118.467V94.6722C118.205 94.8487 117.472 95 116.739 95C114.436 95 112.473 93.2854 112.473 91.0666V86.9314H110.667V84.3595H112.473V80.3252H115.928V84.3595H118.493V86.9314H115.928Z" fill="url(#paint6_linear_536_3947)"/>
<path d="M131.188 88.1919V94.798H127.733V88.7465C127.733 87.7884 127.026 87.1076 126.031 87.1076C125.01 87.1076 124.199 87.7884 124.199 88.7465V94.798H120.744V84.3592H124.199V85.6452C124.958 84.7123 126.057 84.1323 127.288 84.1323C129.434 84.1323 131.188 85.8974 131.188 88.1919Z" fill="url(#paint7_linear_536_3947)"/>
<path fill-rule="evenodd" clip-rule="evenodd" d="M145.296 90.1332H136.999C137.129 91.6208 137.941 92.5285 139.511 92.5285C140.715 92.5285 141.501 92.0243 141.789 91.1922H145.139C144.589 93.4615 142.574 94.9996 139.564 94.9996C135.952 94.9996 133.491 92.8312 133.491 89.5785C133.491 86.3006 135.978 84.1069 139.459 84.1069C142.966 84.1069 145.296 86.2754 145.296 89.5533V90.1332ZM137.208 88.116H141.71C141.37 87.2083 140.689 86.6789 139.511 86.6789C138.307 86.6789 137.574 87.2335 137.208 88.116Z" fill="url(#paint8_linear_536_3947)"/>
<path d="M155.216 84.2584V87.2084C154.954 87.158 154.614 87.1076 154.195 87.1076C152.494 87.1076 151.29 88.091 151.29 89.8056V94.798H147.809V84.3592H151.29V85.7965C151.97 84.7627 153.044 84.1323 154.326 84.1323C154.64 84.1323 154.954 84.1828 155.216 84.2584Z" fill="url(#paint9_linear_536_3947)"/>
<path d="M155.765 92.5034L158.331 91.268C158.802 92.1505 159.561 92.3774 160.137 92.3774C160.712 92.3774 161.079 92.1253 161.079 91.7219C161.079 91.3437 160.765 91.0915 159.77 90.7133C158.54 90.2847 156.367 89.5786 156.367 87.4858C156.367 85.7208 157.938 84.1323 160.398 84.1323C161.916 84.1323 163.251 84.7375 164.063 85.5191L162.335 87.4102C161.995 87.0068 161.367 86.6538 160.66 86.6538C160.058 86.6538 159.77 86.9059 159.77 87.2589C159.77 87.6371 160.163 87.7884 160.948 88.1162C162.492 88.6961 164.272 89.5281 164.272 91.6209C164.272 93.5624 162.78 94.9998 160.346 94.9998C158.435 94.9998 156.42 94.1172 155.765 92.5034Z" fill="url(#paint10_linear_536_3947)"/>
<g style="mix-blend-mode:multiply">
<path fill-rule="evenodd" clip-rule="evenodd" d="M179.282 88.6207C178.601 90.6127 178.209 92.756 178.209 95.0001H171.272C171.272 91.5205 171.953 88.1921 173.209 85.1412C175.643 85.5951 177.79 86.8557 179.282 88.6207ZM185.145 71.8281C182.92 73.0888 180.878 74.6268 179.098 76.3918C178.243 77.249 177.449 78.1568 176.717 79.115C178.968 79.821 181.035 80.9808 182.763 82.4937C183.496 81.6196 184.29 80.8043 185.145 80.0478C186.925 78.5098 188.966 77.2743 191.217 76.3918C193.625 75.4588 196.269 74.9294 199.044 74.9294V68.2476C193.992 68.2476 189.254 69.5588 185.145 71.8281Z" fill="url(#paint11_linear_536_3947)"/>
<path d="M185.145 84.9645C182.972 87.7633 181.69 91.243 181.69 94.9999C181.69 92.5794 180.774 90.3352 179.282 88.6206C177.79 86.8556 175.643 85.5949 173.209 85.1411C172.581 85.0234 171.935 84.9645 171.272 84.9645V78.2827C173.157 78.2827 174.989 78.5601 176.717 79.1149C178.968 79.8209 181.035 80.9807 182.763 82.4936C183.653 83.2248 184.464 84.0568 185.145 84.9645Z" fill="url(#paint12_linear_536_3947)"/>
<path fill-rule="evenodd" clip-rule="evenodd" d="M199.044 78.2827V84.9645C198.363 84.9645 197.709 85.015 197.08 85.1411C196.19 82.9726 195.013 80.9555 193.599 79.1149C195.327 78.5601 197.159 78.2827 199.044 78.2827ZM187.553 82.4936C186.663 83.2248 185.851 84.0568 185.145 84.9645C182.972 87.7633 181.69 91.243 181.69 94.9999H188.626C188.626 92.5794 189.516 90.3352 191.008 88.6206C190.223 86.3513 189.045 84.2838 187.553 82.4936Z" fill="url(#paint13_linear_536_3947)"/>
<path fill-rule="evenodd" clip-rule="evenodd" d="M199.044 95.0001H192.107C192.107 92.756 191.715 90.6127 191.008 88.6207C190.223 86.3514 189.045 84.2839 187.553 82.4937C186.82 81.6196 186.017 80.8043 185.145 80.0478C186.925 78.5098 188.966 77.2743 191.217 76.3918C192.072 77.249 192.866 78.1568 193.599 79.115C195.013 80.9556 196.19 82.9728 197.08 85.1412C198.337 88.1921 199.044 91.5205 199.044 95.0001ZM185.145 71.8281C182.92 73.0888 180.878 74.6268 179.098 76.3918C176.69 75.4588 174.047 74.9294 171.272 74.9294V68.2476C176.324 68.2476 181.062 69.5588 185.145 71.8281Z" fill="url(#paint14_linear_536_3947)"/>
</g>
<defs>
<linearGradient id="paint0_linear_536_3947" x1="37.4821" y1="14.1044" x2="70.6924" y2="-20.3968" gradientUnits="userSpaceOnUse">
<stop stop-color="#C39625"/>
<stop offset="0.3" stop-color="#FEC821"/>
<stop offset="0.5" stop-color="#EBEC7E"/>
<stop offset="0.6" stop-color="#FEC821"/>
<stop offset="1" stop-color="#C39625"/>
</linearGradient>
<linearGradient id="paint1_linear_536_3947" x1="73.6563" y1="-20.7943" x2="136.807" y2="44.7347" gradientUnits="userSpaceOnUse">
<stop stop-color="#C39625"/>
<stop offset="0.3" stop-color="#FEC821"/>
<stop offset="0.5" stop-color="#C39625"/>
<stop offset="0.6" stop-color="#FEC821"/>
<stop offset="1" stop-color="#C39625"/>
</linearGradient>
<linearGradient id="paint2_linear_536_3947" x1="31.2568" y1="35.9996" x2="36.1416" y2="30.9289" gradientUnits="userSpaceOnUse">
<stop stop-color="#C39625"/>
<stop offset="0.5" stop-color="#FEC821"/>
<stop offset="1" stop-color="#C39625"/>
</linearGradient>
<linearGradient id="paint3_linear_536_3947" x1="73.4724" y1="94.7978" x2="73.4724" y2="79.1396" gradientUnits="userSpaceOnUse">
<stop stop-color="#C39625"/>
<stop offset="0.9" stop-color="#FEC821"/>
<stop offset="1" stop-color="#FEC821"/>
</linearGradient>
<linearGradient id="paint4_linear_536_3947" x1="86.2978" y1="94.9998" x2="86.2978" y2="84.1323" gradientUnits="userSpaceOnUse">
<stop stop-color="#C39625"/>
<stop offset="0.9" stop-color="#FEC821"/>
<stop offset="1" stop-color="#FEC821"/>
</linearGradient>
<linearGradient id="paint5_linear_536_3947" x1="101.74" y1="94.798" x2="101.74" y2="84.1323" gradientUnits="userSpaceOnUse">
<stop stop-color="#C39625"/>
<stop offset="0.9" stop-color="#FEC821"/>
<stop offset="1" stop-color="#FEC821"/>
</linearGradient>
<linearGradient id="paint6_linear_536_3947" x1="110.144" y1="95" x2="110.144" y2="80.3252" gradientUnits="userSpaceOnUse">
<stop stop-color="#C39625"/>
<stop offset="0.9" stop-color="#FEC821"/>
<stop offset="1" stop-color="#FEC821"/>
</linearGradient>
<linearGradient id="paint7_linear_536_3947" x1="120.22" y1="94.798" x2="120.22" y2="84.1323" gradientUnits="userSpaceOnUse">
<stop stop-color="#C39625"/>
<stop offset="0.9" stop-color="#FEC821"/>
<stop offset="1" stop-color="#FEC821"/>
</linearGradient>
<linearGradient id="paint8_linear_536_3947" x1="132.968" y1="94.9996" x2="132.968" y2="84.1069" gradientUnits="userSpaceOnUse">
<stop stop-color="#C39625"/>
<stop offset="0.9" stop-color="#FEC821"/>
<stop offset="1" stop-color="#FEC821"/>
</linearGradient>
<linearGradient id="paint9_linear_536_3947" x1="147.285" y1="94.798" x2="147.285" y2="84.1323" gradientUnits="userSpaceOnUse">
<stop stop-color="#C39625"/>
<stop offset="0.9" stop-color="#FEC821"/>
<stop offset="1" stop-color="#FEC821"/>
</linearGradient>
<linearGradient id="paint10_linear_536_3947" x1="155.242" y1="94.9998" x2="155.242" y2="84.1323" gradientUnits="userSpaceOnUse">
<stop stop-color="#C39625"/>
<stop offset="0.9" stop-color="#FEC821"/>
<stop offset="1" stop-color="#FEC821"/>
</linearGradient>
<linearGradient id="paint11_linear_536_3947" x1="199.044" y1="95.5043" x2="171.272" y2="95.5043" gradientUnits="userSpaceOnUse">
<stop stop-color="#23282C" stop-opacity="0.1"/>
<stop offset="1" stop-color="#23282C" stop-opacity="0.5"/>
</linearGradient>
<linearGradient id="paint12_linear_536_3947" x1="175.251" y1="74.4249" x2="188.63" y2="88.3139" gradientUnits="userSpaceOnUse">
<stop stop-color="#23282C" stop-opacity="0.2"/>
<stop offset="1" stop-color="#23282C" stop-opacity="0.5"/>
</linearGradient>
<linearGradient id="paint13_linear_536_3947" x1="199.567" y1="78.2827" x2="199.567" y2="94.9999" gradientUnits="userSpaceOnUse">
<stop stop-color="#23282C" stop-opacity="0.1"/>
<stop offset="1" stop-color="#23282C" stop-opacity="0.5"/>
</linearGradient>
<linearGradient id="paint14_linear_536_3947" x1="183.81" y1="61.2632" x2="201.743" y2="93.488" gradientUnits="userSpaceOnUse">
<stop stop-color="#23282C" stop-opacity="0.2"/>
<stop offset="1" stop-color="#23282C" stop-opacity="0.5"/>
</linearGradient>
</defs>
</svg>
