<svg width="324" height="353" viewBox="0 0 324 353" fill="none" xmlns="http://www.w3.org/2000/svg">
<path d="M3.02829 12.4099V3.05664H170.338C238.003 3.05664 287.634 50.4468 287.634 109.169C287.634 156.281 254.942 194.327 208.504 206.376L207.038 206.756L207.964 207.955L317.622 350.045H222.457L124.902 215.555L124.603 215.142H124.093H122.082C123.563 205.96 124.368 196.523 124.368 186.955C124.368 175.577 123.283 164.463 121.376 153.74H157.146C185.371 153.74 206.421 136.543 206.421 111.403C206.421 86.9677 185.378 69.2062 157.146 69.2062H89.1551H88.1551V70.2062V77.7437C66.8391 48.9172 37.3235 26.0855 3.02829 12.4099Z" stroke="#FEC821" stroke-opacity="0.5" stroke-width="2"/>
<path d="M123.079 217.096H119.654L119.857 216.053L119.86 216.039L119.862 216.025C121.464 206.341 122.34 196.651 122.34 186.955C122.34 175.584 121.32 164.068 119.132 152.828L118.15 153.019L119.132 152.828L118.929 151.785H157.147C170.969 151.785 182.773 147.676 191.139 140.548C199.516 133.411 204.393 123.287 204.393 111.403C204.393 87.9441 184.364 71.021 157.147 71.021H91.186H90.186V72.021V83.7967L88.3805 81.2224L88.3805 81.2224L88.3735 81.2126C66.6636 51.0355 36.7948 27.7352 1.68395 13.9783L1 13.6856V1.10059H170.34C203.313 1.10059 233.652 12.3352 255.775 32.6776L255.775 32.6778C277.608 52.7415 289.664 79.8475 289.664 109.168C289.664 154.908 258.54 194.204 211.817 207.499L210.398 207.903L211.299 209.071L321.538 352H221.299L123.889 217.51L123.59 217.096H123.079ZM222.008 349.815L222.308 350.229H222.819H315.454H317.49L316.246 348.618L206.822 206.918L208.296 206.492C255.66 194.235 287.46 155.046 287.46 109.168C287.46 49.5924 235.888 3.01123 170.34 3.01123H3.91418H2.91418V4.01123V11.8318V12.5091L3.54309 12.7604C36.5756 25.9611 64.9874 47.4968 86.1869 75.2815L87.9819 77.6341V74.675V69.2509H157.147C185.734 69.2509 206.307 87.0925 206.307 111.543C206.307 135.851 185.736 153.695 157.147 153.695H122.499H121.306L121.515 154.87C123.388 165.42 124.254 176.254 124.254 186.955C124.254 195.98 123.533 205.143 122.092 214.026L121.904 215.187H123.079H124.598L222.008 349.815Z" stroke="#FEC821" stroke-opacity="0.5" stroke-width="2"/>
</svg>
